<mxfile host="app.diagrams.net" modified="2020-12-16T17:50:37.058Z" agent="5.0 (X11; Linux x86_64) AppleWebKit/537.36 (KHTML, like Gecko) Chrome/85.0.4183.102 YaBrowser/20.9.3.189 (beta) Yowser/2.5 Safari/537.36" etag="HJDW3JqE9T6YnF9IFW_Q" version="14.0.4" type="github">
  <diagram id="R2lEEEUBdFMjLlhIrx00" name="Page-1">
    <mxGraphModel dx="1302" dy="806" grid="1" gridSize="10" guides="1" tooltips="1" connect="1" arrows="1" fold="1" page="1" pageScale="1" pageWidth="850" pageHeight="1100" math="0" shadow="0" extFonts="Permanent Marker^https://fonts.googleapis.com/css?family=Permanent+Marker">
      <root>
        <mxCell id="0" />
        <mxCell id="1" parent="0" />
        <mxCell id="Qi1eKGF1yo7E3s4-bVZZ-1" value="&lt;font style=&quot;font-size: 16px&quot;&gt;&lt;b&gt;TEST PASSAGE&lt;/b&gt;&lt;br&gt;&lt;br&gt;test_id&lt;br&gt;user_id&lt;br&gt;&lt;br&gt;&lt;/font&gt;" style="rounded=0;whiteSpace=wrap;html=1;" parent="1" vertex="1">
          <mxGeometry x="400" y="200" width="250" height="120" as="geometry" />
        </mxCell>
        <mxCell id="Qi1eKGF1yo7E3s4-bVZZ-2" value="&lt;font style=&quot;font-size: 16px&quot;&gt;&lt;span style=&quot;font-weight: bold&quot;&gt;TEST&lt;/span&gt;&lt;br&gt;&lt;br&gt;&lt;font style=&quot;font-size: 16px&quot;&gt;title&lt;br&gt;&lt;/font&gt;category&lt;br&gt;category_id&lt;br&gt;user_id&lt;br&gt;&lt;/font&gt;" style="rounded=0;whiteSpace=wrap;html=1;" parent="1" vertex="1">
          <mxGeometry x="50" y="198" width="250" height="120" as="geometry" />
        </mxCell>
        <mxCell id="Qi1eKGF1yo7E3s4-bVZZ-3" value="&lt;font style=&quot;font-size: 16px&quot;&gt;&lt;font style=&quot;font-size: 16px&quot;&gt;&lt;b&gt;CATEGORY&lt;/b&gt;&lt;br&gt;&lt;/font&gt;&lt;br&gt;&lt;font style=&quot;font-size: 16px&quot;&gt;title&lt;/font&gt;&lt;/font&gt;" style="rounded=0;whiteSpace=wrap;html=1;" parent="1" vertex="1">
          <mxGeometry x="50" y="40" width="250" height="120" as="geometry" />
        </mxCell>
        <mxCell id="Qi1eKGF1yo7E3s4-bVZZ-5" value="&lt;span style=&quot;font-size: 16px&quot;&gt;&lt;font style=&quot;font-size: 16px&quot;&gt;&lt;b&gt;QUESTION&lt;/b&gt;&lt;br&gt;&lt;br&gt;test_id&lt;br&gt;body&lt;br&gt;&lt;/font&gt;&lt;/span&gt;" style="rounded=0;whiteSpace=wrap;html=1;" parent="1" vertex="1">
          <mxGeometry x="50" y="360" width="250" height="120" as="geometry" />
        </mxCell>
        <mxCell id="Qi1eKGF1yo7E3s4-bVZZ-6" value="&lt;font style=&quot;font-size: 16px&quot;&gt;&lt;b&gt;ANSWER&lt;/b&gt;&lt;br&gt;&lt;br&gt;correct&lt;br&gt;answer&lt;br&gt;question_id&lt;br&gt;&lt;/font&gt;" style="rounded=0;whiteSpace=wrap;html=1;" parent="1" vertex="1">
          <mxGeometry x="50" y="520" width="250" height="120" as="geometry" />
        </mxCell>
        <mxCell id="Qi1eKGF1yo7E3s4-bVZZ-8" value="&lt;font style=&quot;font-size: 16px&quot;&gt;&lt;b&gt;USER&lt;/b&gt;&lt;br&gt;&lt;br&gt;name&lt;br&gt;nickname&lt;br&gt;&lt;/font&gt;" style="rounded=0;whiteSpace=wrap;html=1;" parent="1" vertex="1">
          <mxGeometry x="760" y="200" width="250" height="120" as="geometry" />
        </mxCell>
        <mxCell id="Qi1eKGF1yo7E3s4-bVZZ-16" value="" style="endArrow=none;html=1;fontSize=25;entryX=0.5;entryY=1;entryDx=0;entryDy=0;exitX=0.5;exitY=0;exitDx=0;exitDy=0;" parent="1" source="Qi1eKGF1yo7E3s4-bVZZ-2" target="Qi1eKGF1yo7E3s4-bVZZ-3" edge="1">
          <mxGeometry width="50" height="50" relative="1" as="geometry">
            <mxPoint x="165" y="190" as="sourcePoint" />
            <mxPoint x="380" y="160" as="targetPoint" />
          </mxGeometry>
        </mxCell>
        <mxCell id="Qi1eKGF1yo7E3s4-bVZZ-17" value="" style="endArrow=none;html=1;fontSize=25;entryX=0.5;entryY=1;entryDx=0;entryDy=0;" parent="1" target="Qi1eKGF1yo7E3s4-bVZZ-2" edge="1">
          <mxGeometry width="50" height="50" relative="1" as="geometry">
            <mxPoint x="175" y="318" as="sourcePoint" />
            <mxPoint x="185" y="170" as="targetPoint" />
            <Array as="points">
              <mxPoint x="175" y="370" />
            </Array>
          </mxGeometry>
        </mxCell>
        <mxCell id="Qi1eKGF1yo7E3s4-bVZZ-18" value="" style="endArrow=none;html=1;fontSize=25;entryX=0.5;entryY=1;entryDx=0;entryDy=0;exitX=0.5;exitY=0;exitDx=0;exitDy=0;" parent="1" source="Qi1eKGF1yo7E3s4-bVZZ-6" target="Qi1eKGF1yo7E3s4-bVZZ-5" edge="1">
          <mxGeometry width="50" height="50" relative="1" as="geometry">
            <mxPoint x="500" y="230" as="sourcePoint" />
            <mxPoint x="550" y="180" as="targetPoint" />
          </mxGeometry>
        </mxCell>
        <mxCell id="Qi1eKGF1yo7E3s4-bVZZ-19" value="" style="endArrow=none;html=1;fontSize=25;exitX=1;exitY=0.5;exitDx=0;exitDy=0;entryX=0;entryY=0.5;entryDx=0;entryDy=0;" parent="1" source="Qi1eKGF1yo7E3s4-bVZZ-2" target="Qi1eKGF1yo7E3s4-bVZZ-1" edge="1">
          <mxGeometry width="50" height="50" relative="1" as="geometry">
            <mxPoint x="500" y="230" as="sourcePoint" />
            <mxPoint x="360" y="210" as="targetPoint" />
          </mxGeometry>
        </mxCell>
        <mxCell id="Qi1eKGF1yo7E3s4-bVZZ-20" value="" style="endArrow=none;html=1;fontSize=25;exitX=1;exitY=0.5;exitDx=0;exitDy=0;entryX=0;entryY=0.5;entryDx=0;entryDy=0;" parent="1" source="Qi1eKGF1yo7E3s4-bVZZ-1" target="Qi1eKGF1yo7E3s4-bVZZ-8" edge="1">
          <mxGeometry width="50" height="50" relative="1" as="geometry">
            <mxPoint x="500" y="230" as="sourcePoint" />
            <mxPoint x="550" y="180" as="targetPoint" />
          </mxGeometry>
        </mxCell>
        <mxCell id="Qi1eKGF1yo7E3s4-bVZZ-21" value="" style="endArrow=none;html=1;fontSize=25;entryX=1;entryY=1;entryDx=0;entryDy=0;" parent="1" target="Qi1eKGF1yo7E3s4-bVZZ-2" edge="1">
          <mxGeometry width="50" height="50" relative="1" as="geometry">
            <mxPoint x="400" y="400" as="sourcePoint" />
            <mxPoint x="550" y="180" as="targetPoint" />
          </mxGeometry>
        </mxCell>
        <mxCell id="Qi1eKGF1yo7E3s4-bVZZ-22" value="" style="endArrow=none;html=1;fontSize=25;" parent="1" edge="1">
          <mxGeometry width="50" height="50" relative="1" as="geometry">
            <mxPoint x="400" y="400" as="sourcePoint" />
            <mxPoint x="680" y="400" as="targetPoint" />
          </mxGeometry>
        </mxCell>
        <mxCell id="Qi1eKGF1yo7E3s4-bVZZ-23" value="" style="endArrow=none;html=1;fontSize=25;entryX=0;entryY=1;entryDx=0;entryDy=0;" parent="1" target="Qi1eKGF1yo7E3s4-bVZZ-8" edge="1">
          <mxGeometry width="50" height="50" relative="1" as="geometry">
            <mxPoint x="680" y="400" as="sourcePoint" />
            <mxPoint x="550" y="180" as="targetPoint" />
          </mxGeometry>
        </mxCell>
      </root>
    </mxGraphModel>
  </diagram>
</mxfile>
